<mxfile host="app.diagrams.net" agent="Mozilla/5.0 (Windows NT 10.0; Win64; x64) AppleWebKit/537.36 (KHTML, like Gecko) Chrome/131.0.0.0 Safari/537.36" version="25.0.3">
  <diagram id="6I0OCvxSQrVGMHxT2VVA" name="Page-1">
    <mxGraphModel dx="2015" dy="946" grid="0" gridSize="10" guides="1" tooltips="1" connect="1" arrows="1" fold="1" page="0" pageScale="1" pageWidth="850" pageHeight="1100" math="0" shadow="0">
      <root>
        <mxCell id="0" />
        <mxCell id="1" parent="0" />
        <mxCell id="u0KdexLZ_XR5zZTz2mG9-1" value="" style="group" parent="1" vertex="1" connectable="0">
          <mxGeometry x="-2.5" y="115" width="1307.5" height="1463" as="geometry" />
        </mxCell>
        <mxCell id="VO531dHjWUVzXmGTuJKX-1" value="&lt;font face=&quot;Times New Roman&quot; style=&quot;font-size: 25px;&quot;&gt;关键科学问题：&lt;span style=&quot;color: rgb(51, 51, 51); letter-spacing: 0pt; text-align: justify; text-indent: 2em;&quot;&gt;如何通过多模态情感分析及数字孪生技术，并通过对话式交互诊断方法生成精准的精神健康诊断建议，实现多文化，跨族群的心理疾病早期精准筛查&lt;/span&gt;&lt;span style=&quot;background-color: initial;&quot;&gt;？&lt;/span&gt;&lt;/font&gt;&lt;div style=&quot;text-align: start;&quot; data-hash=&quot;b935e11d9d1dda486e0670e52072802b&quot; data-version=&quot;3.0.0&quot;&gt;&lt;/div&gt;&lt;div&gt;&lt;font face=&quot;Times New Roman&quot; style=&quot;font-size: 25px;&quot;&gt;（Key Scientific Question&lt;strong style=&quot;&quot;&gt;:&lt;/strong&gt; How can we leverage multimodal sentiment analysis and digital twin technology, along with dialogue-based interactive diagnostic methods, to generate precise mental health diagnostic recommendations and achieve early and accurate screening of psychological disorders across diverse cultures and ethnic groups?）&lt;/font&gt;&lt;span style=&quot;background-color: initial;&quot;&gt;&lt;/span&gt;&lt;/div&gt;" style="html=1;outlineConnect=0;whiteSpace=wrap;fillColor=#EBEBEB;shape=mxgraph.archimate3.application;appType=generic;archiType=square;" parent="u0KdexLZ_XR5zZTz2mG9-1" vertex="1">
          <mxGeometry x="186.29827766179537" width="934.9034446764091" height="223.83438485804416" as="geometry" />
        </mxCell>
        <mxCell id="VO531dHjWUVzXmGTuJKX-2" value="&lt;font face=&quot;Times New Roman&quot; style=&quot;font-size: 25px;&quot;&gt;关键技术问题：基于&lt;b style=&quot;&quot;&gt;构建跨文化多模态数据库，&lt;/b&gt;&lt;b style=&quot;&quot;&gt;设计高效的多模态融合算法，开发实时对话生成和反馈机制的精神健康诊断系统&lt;/b&gt;&lt;/font&gt;&lt;div&gt;&lt;font face=&quot;Times New Roman&quot; style=&quot;font-size: 25px;&quot;&gt;（&lt;span style=&quot;background-color: initial;&quot;&gt;Key Technical Issue&lt;/span&gt;&lt;strong style=&quot;background-color: initial;&quot;&gt;:&lt;/strong&gt;&lt;span style=&quot;background-color: initial;&quot;&gt;&amp;nbsp;Based on the construction of a cross-cultural multimodal database, design efficient multimodal fusion algorithms, and develop a real-time dialogue generation and feedback mechanism for a mental health diagnostic system.&lt;/span&gt;&lt;span style=&quot;background-color: initial;&quot;&gt;）&lt;/span&gt;&lt;/font&gt;&lt;/div&gt;" style="html=1;outlineConnect=0;whiteSpace=wrap;fillColor=#EBEBEB;shape=mxgraph.archimate3.application;appType=generic;archiType=square;" parent="u0KdexLZ_XR5zZTz2mG9-1" vertex="1">
          <mxGeometry x="183.5686325678497" y="295.3690851735016" width="940.3627348643005" height="209.98895899053628" as="geometry" />
        </mxCell>
        <mxCell id="VO531dHjWUVzXmGTuJKX-3" value="&lt;font face=&quot;Times New Roman&quot; style=&quot;font-size: 25px;&quot;&gt;&lt;b style=&quot;&quot;&gt;研究内容二：（中国团队）&lt;/b&gt;多模态数据标注及处理&lt;/font&gt;&lt;div&gt;&lt;font face=&quot;Times New Roman&quot; style=&quot;font-size: 25px;&quot;&gt;（&lt;b style=&quot;&quot;&gt;Research Topic 2: (China Team)&lt;/b&gt; Multimodal Data Annotation and Processing）&lt;/font&gt;&lt;/div&gt;" style="html=1;outlineConnect=0;whiteSpace=wrap;fillColor=#EBEBEB;shape=mxgraph.archimate3.application;appType=generic;archiType=square;" parent="u0KdexLZ_XR5zZTz2mG9-1" vertex="1">
          <mxGeometry x="268.8700417536534" y="643.8123028391166" width="232.01983298538616" height="299.98422712933746" as="geometry" />
        </mxCell>
        <mxCell id="VO531dHjWUVzXmGTuJKX-4" value="&lt;font face=&quot;Times New Roman&quot; style=&quot;font-size: 25px;&quot;&gt;&lt;b style=&quot;&quot;&gt;研究内容三：（中国团队）&lt;/b&gt;多模态数据对齐及模型训练&lt;/font&gt;&lt;div&gt;&lt;font face=&quot;Times New Roman&quot; style=&quot;font-size: 25px;&quot;&gt;（&lt;strong style=&quot;background-color: initial;&quot;&gt;Research Topic 3:&lt;/strong&gt;&lt;span style=&quot;background-color: initial;&quot;&gt;&lt;b&gt;&amp;nbsp;(China Team) &lt;/b&gt;Multimodal Data Alignment and Model Training&lt;/span&gt;&lt;span style=&quot;background-color: initial;&quot;&gt;）&lt;/span&gt;&lt;/font&gt;&lt;/div&gt;" style="html=1;outlineConnect=0;whiteSpace=wrap;fillColor=#EBEBEB;shape=mxgraph.archimate3.application;appType=generic;archiType=square;" parent="u0KdexLZ_XR5zZTz2mG9-1" vertex="1">
          <mxGeometry x="537.7400835073068" y="643.8123028391166" width="232.01983298538616" height="299.98422712933746" as="geometry" />
        </mxCell>
        <mxCell id="VO531dHjWUVzXmGTuJKX-5" value="&lt;font face=&quot;Times New Roman&quot; style=&quot;font-size: 25px;&quot;&gt;&lt;b style=&quot;&quot;&gt;研究内容四：（中国团队）&lt;/b&gt;人机交互式诊断&lt;/font&gt;&lt;div&gt;&lt;font style=&quot;font-size: 25px;&quot; face=&quot;Times New Roman&quot;&gt;&lt;font style=&quot;&quot;&gt;（&lt;b style=&quot;&quot;&gt;Research Topic 4: (China Team)&lt;/b&gt; Human-Machine Interactive Diagnosis）&lt;/font&gt;&lt;/font&gt;&lt;/div&gt;" style="html=1;outlineConnect=0;whiteSpace=wrap;fillColor=#EBEBEB;shape=mxgraph.archimate3.application;appType=generic;archiType=square;" parent="u0KdexLZ_XR5zZTz2mG9-1" vertex="1">
          <mxGeometry x="806.6101252609602" y="646.1198738170347" width="232.01983298538616" height="299.98422712933746" as="geometry" />
        </mxCell>
        <mxCell id="VO531dHjWUVzXmGTuJKX-6" value="&lt;font style=&quot;font-size: 25px;&quot;&gt;&lt;font style=&quot;&quot; face=&quot;Times New Roman&quot;&gt;&lt;font style=&quot;&quot;&gt;&lt;b style=&quot;&quot;&gt;研究内容一：（马来西亚团队）&lt;/b&gt;跨文化多模态数据库构建&lt;/font&gt;&lt;/font&gt;&lt;font style=&quot;font-family: &amp;quot;Times New Roman&amp;quot;; background-color: initial;&quot;&gt;&lt;span style=&quot;background-color: initial;&quot;&gt;（&lt;/span&gt;&lt;strong style=&quot;background-color: initial;&quot;&gt;Research Topic 1:&lt;/strong&gt;&lt;span style=&quot;background-color: initial;&quot;&gt; &lt;b&gt;(Malaysia Team)&lt;/b&gt; Construction of a Cross-Cultural Multimodal Database）&lt;/span&gt;&lt;/font&gt;&lt;span style=&quot;font-family: &amp;quot;Times New Roman&amp;quot;; background-color: initial; text-wrap-mode: nowrap; color: rgba(0, 0, 0, 0); text-align: start;&quot;&gt;）&lt;/span&gt;&lt;/font&gt;" style="html=1;outlineConnect=0;whiteSpace=wrap;fillColor=#EBEBEB;shape=mxgraph.archimate3.application;appType=generic;archiType=square;" parent="u0KdexLZ_XR5zZTz2mG9-1" vertex="1">
          <mxGeometry y="646.1198738170347" width="232.01983298538616" height="299.98422712933746" as="geometry" />
        </mxCell>
        <mxCell id="VO531dHjWUVzXmGTuJKX-7" value="&lt;font style=&quot;&quot; face=&quot;Times New Roman&quot;&gt;&lt;font style=&quot;&quot;&gt;&lt;font style=&quot;font-size: 25px;&quot;&gt;&lt;b style=&quot;&quot;&gt;研究内容五：（马来西亚团队）&lt;/b&gt;系统集成及临床验证&lt;/font&gt;&lt;/font&gt;&lt;/font&gt;&lt;div&gt;&lt;font style=&quot;font-size: 25px;&quot; face=&quot;Times New Roman&quot;&gt;&lt;font style=&quot;&quot;&gt;&lt;font style=&quot;&quot;&gt;（&lt;/font&gt;&lt;font style=&quot;&quot;&gt;&lt;strong style=&quot;background-color: initial;&quot;&gt;Research Topic 5:&lt;/strong&gt;&lt;span style=&quot;background-color: initial;&quot;&gt;&lt;b&gt;&amp;nbsp;(Malaysia Team)&lt;/b&gt; System Integration and Clinical Validation&lt;/span&gt;&lt;span style=&quot;background-color: initial;&quot;&gt;）&lt;/span&gt;&lt;/font&gt;&lt;/font&gt;&lt;/font&gt;&lt;/div&gt;" style="html=1;outlineConnect=0;whiteSpace=wrap;fillColor=#EBEBEB;shape=mxgraph.archimate3.application;appType=generic;archiType=square;" parent="u0KdexLZ_XR5zZTz2mG9-1" vertex="1">
          <mxGeometry x="1075.4801670146137" y="641.5047318611987" width="232.01983298538616" height="299.98422712933746" as="geometry" />
        </mxCell>
        <mxCell id="VO531dHjWUVzXmGTuJKX-8" value="&lt;font face=&quot;Times New Roman&quot; style=&quot;font-size: 25px;&quot;&gt;验证系统有效性&lt;/font&gt;&lt;div&gt;&lt;font face=&quot;Times New Roman&quot; style=&quot;font-size: 25px;&quot;&gt;（Verify System Effectiveness）&lt;/font&gt;&lt;/div&gt;" style="html=1;outlineConnect=0;whiteSpace=wrap;fillColor=#EBEBEB;shape=mxgraph.archimate3.application;appType=generic;archiType=square;" parent="u0KdexLZ_XR5zZTz2mG9-1" vertex="1">
          <mxGeometry x="380.78549060542787" y="1206.8596214511042" width="545.9290187891442" height="92.30283911671924" as="geometry" />
        </mxCell>
        <mxCell id="VO531dHjWUVzXmGTuJKX-9" value="&lt;font face=&quot;Times New Roman&quot; style=&quot;font-size: 25px;&quot;&gt;临床验证&lt;/font&gt;&lt;div&gt;&lt;font face=&quot;Times New Roman&quot; style=&quot;font-size: 25px;&quot;&gt;（Clinical Validation）&lt;/font&gt;&lt;/div&gt;" style="html=1;outlineConnect=0;whiteSpace=wrap;fillColor=#EBEBEB;shape=mxgraph.archimate3.application;appType=generic;archiType=square;" parent="u0KdexLZ_XR5zZTz2mG9-1" vertex="1">
          <mxGeometry x="380.78549060542787" y="1370.697160883281" width="545.9290187891442" height="92.30283911671924" as="geometry" />
        </mxCell>
        <mxCell id="VO531dHjWUVzXmGTuJKX-10" style="edgeStyle=orthogonalEdgeStyle;rounded=0;orthogonalLoop=1;jettySize=auto;html=1;exitX=0.5;exitY=1;exitDx=0;exitDy=0;exitPerimeter=0;entryX=0.5;entryY=0;entryDx=0;entryDy=0;entryPerimeter=0;" parent="u0KdexLZ_XR5zZTz2mG9-1" source="VO531dHjWUVzXmGTuJKX-1" target="VO531dHjWUVzXmGTuJKX-2" edge="1">
          <mxGeometry relative="1" as="geometry" />
        </mxCell>
        <mxCell id="VO531dHjWUVzXmGTuJKX-11" style="rounded=0;orthogonalLoop=1;jettySize=auto;html=1;exitX=0.5;exitY=1;exitDx=0;exitDy=0;exitPerimeter=0;entryX=0.5;entryY=0;entryDx=0;entryDy=0;entryPerimeter=0;" parent="u0KdexLZ_XR5zZTz2mG9-1" source="VO531dHjWUVzXmGTuJKX-2" target="VO531dHjWUVzXmGTuJKX-3" edge="1">
          <mxGeometry relative="1" as="geometry" />
        </mxCell>
        <mxCell id="VO531dHjWUVzXmGTuJKX-12" style="rounded=0;orthogonalLoop=1;jettySize=auto;html=1;exitX=0.5;exitY=1;exitDx=0;exitDy=0;exitPerimeter=0;entryX=0.5;entryY=0;entryDx=0;entryDy=0;entryPerimeter=0;edgeStyle=orthogonalEdgeStyle;" parent="u0KdexLZ_XR5zZTz2mG9-1" source="VO531dHjWUVzXmGTuJKX-2" target="VO531dHjWUVzXmGTuJKX-4" edge="1">
          <mxGeometry relative="1" as="geometry" />
        </mxCell>
        <mxCell id="VO531dHjWUVzXmGTuJKX-13" style="rounded=0;orthogonalLoop=1;jettySize=auto;html=1;exitX=0.5;exitY=1;exitDx=0;exitDy=0;exitPerimeter=0;entryX=0.5;entryY=0;entryDx=0;entryDy=0;entryPerimeter=0;" parent="u0KdexLZ_XR5zZTz2mG9-1" source="VO531dHjWUVzXmGTuJKX-2" target="VO531dHjWUVzXmGTuJKX-5" edge="1">
          <mxGeometry relative="1" as="geometry" />
        </mxCell>
        <mxCell id="VO531dHjWUVzXmGTuJKX-14" style="rounded=0;orthogonalLoop=1;jettySize=auto;html=1;exitX=0.5;exitY=1;exitDx=0;exitDy=0;exitPerimeter=0;entryX=0.5;entryY=0;entryDx=0;entryDy=0;entryPerimeter=0;" parent="u0KdexLZ_XR5zZTz2mG9-1" source="VO531dHjWUVzXmGTuJKX-2" target="VO531dHjWUVzXmGTuJKX-6" edge="1">
          <mxGeometry relative="1" as="geometry" />
        </mxCell>
        <mxCell id="VO531dHjWUVzXmGTuJKX-15" style="rounded=0;orthogonalLoop=1;jettySize=auto;html=1;exitX=0.5;exitY=1;exitDx=0;exitDy=0;exitPerimeter=0;entryX=0.5;entryY=0;entryDx=0;entryDy=0;entryPerimeter=0;" parent="u0KdexLZ_XR5zZTz2mG9-1" source="VO531dHjWUVzXmGTuJKX-2" target="VO531dHjWUVzXmGTuJKX-7" edge="1">
          <mxGeometry relative="1" as="geometry" />
        </mxCell>
        <mxCell id="VO531dHjWUVzXmGTuJKX-16" style="edgeStyle=orthogonalEdgeStyle;rounded=0;orthogonalLoop=1;jettySize=auto;html=1;exitX=0.5;exitY=1;exitDx=0;exitDy=0;exitPerimeter=0;entryX=0.5;entryY=0;entryDx=0;entryDy=0;entryPerimeter=0;" parent="u0KdexLZ_XR5zZTz2mG9-1" source="VO531dHjWUVzXmGTuJKX-8" target="VO531dHjWUVzXmGTuJKX-9" edge="1">
          <mxGeometry relative="1" as="geometry" />
        </mxCell>
        <mxCell id="VO531dHjWUVzXmGTuJKX-17" style="rounded=0;orthogonalLoop=1;jettySize=auto;html=1;exitX=0.5;exitY=1;exitDx=0;exitDy=0;exitPerimeter=0;entryX=0.5;entryY=0;entryDx=0;entryDy=0;entryPerimeter=0;" parent="u0KdexLZ_XR5zZTz2mG9-1" source="VO531dHjWUVzXmGTuJKX-3" target="VO531dHjWUVzXmGTuJKX-8" edge="1">
          <mxGeometry relative="1" as="geometry">
            <mxPoint x="482.464770354906" y="1100.7113564668773" as="sourcePoint" />
          </mxGeometry>
        </mxCell>
        <mxCell id="VO531dHjWUVzXmGTuJKX-18" style="rounded=0;orthogonalLoop=1;jettySize=auto;html=1;exitX=0.5;exitY=1;exitDx=0;exitDy=0;exitPerimeter=0;entryX=0.5;entryY=0;entryDx=0;entryDy=0;entryPerimeter=0;edgeStyle=orthogonalEdgeStyle;" parent="u0KdexLZ_XR5zZTz2mG9-1" source="VO531dHjWUVzXmGTuJKX-4" target="VO531dHjWUVzXmGTuJKX-8" edge="1">
          <mxGeometry relative="1" as="geometry">
            <mxPoint x="648.973121085595" y="1100.7113564668773" as="sourcePoint" />
          </mxGeometry>
        </mxCell>
        <mxCell id="VO531dHjWUVzXmGTuJKX-19" style="rounded=0;orthogonalLoop=1;jettySize=auto;html=1;exitX=0.5;exitY=1;exitDx=0;exitDy=0;exitPerimeter=0;entryX=0.5;entryY=0;entryDx=0;entryDy=0;entryPerimeter=0;" parent="u0KdexLZ_XR5zZTz2mG9-1" source="VO531dHjWUVzXmGTuJKX-5" target="VO531dHjWUVzXmGTuJKX-8" edge="1">
          <mxGeometry relative="1" as="geometry">
            <mxPoint x="815.4814718162842" y="1100.7113564668773" as="sourcePoint" />
          </mxGeometry>
        </mxCell>
        <mxCell id="VO531dHjWUVzXmGTuJKX-20" style="rounded=0;orthogonalLoop=1;jettySize=auto;html=1;exitX=0.5;exitY=1;exitDx=0;exitDy=0;exitPerimeter=0;entryX=0.5;entryY=0;entryDx=0;entryDy=0;entryPerimeter=0;" parent="u0KdexLZ_XR5zZTz2mG9-1" source="VO531dHjWUVzXmGTuJKX-6" target="VO531dHjWUVzXmGTuJKX-8" edge="1">
          <mxGeometry relative="1" as="geometry">
            <mxPoint x="315.9564196242171" y="1100.7113564668773" as="sourcePoint" />
          </mxGeometry>
        </mxCell>
        <mxCell id="VO531dHjWUVzXmGTuJKX-22" style="rounded=0;orthogonalLoop=1;jettySize=auto;html=1;exitX=0.5;exitY=1;exitDx=0;exitDy=0;exitPerimeter=0;entryX=0.5;entryY=0;entryDx=0;entryDy=0;entryPerimeter=0;" parent="u0KdexLZ_XR5zZTz2mG9-1" source="VO531dHjWUVzXmGTuJKX-7" target="VO531dHjWUVzXmGTuJKX-8" edge="1">
          <mxGeometry relative="1" as="geometry">
            <mxPoint x="981.989822546973" y="1100.7113564668773" as="sourcePoint" />
          </mxGeometry>
        </mxCell>
      </root>
    </mxGraphModel>
  </diagram>
</mxfile>
